<svg width="24" height="24" viewBox="0 0 24 24" fill="none" xmlns="http://www.w3.org/2000/svg">
<path d="M19.332 13.2002C19.4671 13.2002 19.6144 13.2247 19.7334 13.2705L18.3438 15.333H2.40039C2.2532 15.333 2.13393 15.4525 2.13379 15.5996V21.5996C2.13379 21.7469 2.25311 21.8662 2.40039 21.8662H11.8662L14 24H2.40039C1.07491 24 0 22.9251 0 21.5996V15.5996C0.000140952 14.2742 1.07499 13.2002 2.40039 13.2002H19.332ZM18.2402 2.13379H2.40039C2.25311 2.13379 2.13379 2.25311 2.13379 2.40039V8.40039C2.134 8.54749 2.25324 8.66699 2.40039 8.66699H12L14.1738 10.7998H2.40039C1.07504 10.7998 0.000210776 9.72569 0 8.40039V2.40039C0 1.07491 1.07491 0 2.40039 0H19.6934L18.2402 2.13379Z" fill="#33363D"/>
<path fill-rule="evenodd" clip-rule="evenodd" d="M23.2637 0.451057C23.7507 0.782501 23.8768 1.446 23.5454 1.93302L18.1009 9.93302C17.9222 10.1957 17.6356 10.365 17.3193 10.3948C17.003 10.4247 16.6898 10.3119 16.4651 10.0873L13.13 6.75399C12.7133 6.33754 12.7132 5.66217 13.1296 5.2455C13.5461 4.82883 14.2214 4.82866 14.6381 5.24511L17.0621 7.6678L21.7817 0.732752C22.1132 0.245732 22.7767 0.119613 23.2637 0.451057Z" fill="#256EF4"/>
<path fill-rule="evenodd" clip-rule="evenodd" d="M23.2637 13.7846C23.7507 14.116 23.8768 14.7795 23.5454 15.2665L18.1009 23.2665C17.9222 23.5292 17.6356 23.6985 17.3193 23.7283C17.003 23.7582 16.6898 23.6454 16.4651 23.4208L13.13 20.0875C12.7133 19.671 12.7132 18.9957 13.1296 18.579C13.5461 18.1623 14.2214 18.1622 14.6381 18.5786L17.0621 21.0013L21.7817 14.0662C22.1132 13.5792 22.7767 13.4531 23.2637 13.7846Z" fill="#256EF4"/>
</svg>
